<mxfile host="65bd71144e">
    <diagram id="TtalKkak-Context-Diagram" name="컨텍스트 다이어그램">
        <mxGraphModel dx="778" dy="593" grid="1" gridSize="10" guides="1" tooltips="1" connect="1" arrows="1" fold="1" page="1" pageScale="1" pageWidth="1169" pageHeight="827" math="0" shadow="0">
            <root>
                <mxCell id="0"/>
                <mxCell id="1" parent="0"/>
                <mxCell id="title" value="TtalKkak 시스템 컨텍스트 다이어그램" style="text;html=1;strokeColor=none;fillColor=none;align=center;verticalAlign=middle;whiteSpace=wrap;rounded=0;fontSize=20;fontStyle=1" parent="1" vertex="1">
                    <mxGeometry x="300" y="20" width="400" height="30" as="geometry"/>
                </mxCell>
                <mxCell id="ttalkkak-system" value="TtalKkak&#10;AI 기반 프로젝트 관리 시스템&#10;&#10;🎯 음성 입력을 통한&#10;자동 업무 생성 및 배정" style="rounded=1;whiteSpace=wrap;html=1;fillColor=#dae8fc;strokeColor=#6c8ebf;fontSize=14;fontStyle=1;align=center;verticalAlign=middle;" parent="1" vertex="1">
                    <mxGeometry x="450" y="350" width="220" height="120" as="geometry"/>
                </mxCell>
                <mxCell id="project-manager" value="🧑‍💼&#10;프로젝트 매니저&#10;&#10;• 프로젝트 기획&#10;• 업무 관리&#10;• 팀 조율" style="rounded=1;whiteSpace=wrap;html=1;fillColor=#e1d5e7;strokeColor=#9673a6;fontSize=12;align=center;verticalAlign=middle;" parent="1" vertex="1">
                    <mxGeometry x="80" y="200" width="140" height="100" as="geometry"/>
                </mxCell>
                <mxCell id="developer" value="👨‍💻&#10;개발자&#10;&#10;• 기술 업무 수행&#10;• 코드 개발&#10;• 시스템 구현" style="rounded=1;whiteSpace=wrap;html=1;fillColor=#e1d5e7;strokeColor=#9673a6;fontSize=12;align=center;verticalAlign=middle;" parent="1" vertex="1">
                    <mxGeometry x="80" y="350" width="140" height="100" as="geometry"/>
                </mxCell>
                <mxCell id="team-member" value="👥&#10;팀 멤버&#10;&#10;• 일반 업무 참여&#10;• 협업&#10;• 피드백 제공" style="rounded=1;whiteSpace=wrap;html=1;fillColor=#e1d5e7;strokeColor=#9673a6;fontSize=12;align=center;verticalAlign=middle;" parent="1" vertex="1">
                    <mxGeometry x="80" y="500" width="140" height="100" as="geometry"/>
                </mxCell>
                <mxCell id="slack-api" value="🤖 Slack API&#10;&#10;• 음성 파일 업로드&#10;• 실시간 알림&#10;• 명령어 처리&#10;• 봇 인터페이스" style="rounded=1;whiteSpace=wrap;html=1;fillColor=#fff2cc;strokeColor=#d6b656;fontSize=12;align=center;verticalAlign=middle;" parent="1" vertex="1">
                    <mxGeometry x="780" y="150" width="150" height="120" as="geometry"/>
                </mxCell>
                <mxCell id="notion-api" value="📝 Notion API&#10;&#10;• 자동 페이지 생성&#10;• 프로젝트 문서화&#10;• 구조화된 내용&#10;• 워크스페이스 연동" style="rounded=1;whiteSpace=wrap;html=1;fillColor=#fff2cc;strokeColor=#d6b656;fontSize=12;align=center;verticalAlign=middle;" parent="1" vertex="1">
                    <mxGeometry x="780" y="300" width="150" height="120" as="geometry"/>
                </mxCell>
                <mxCell id="jira-api" value="🎫 JIRA API&#10;&#10;• 자동 이슈 생성&#10;• Epic/Task 매핑&#10;• 워크플로우 관리&#10;• 프로젝트 추적" style="rounded=1;whiteSpace=wrap;html=1;fillColor=#fff2cc;strokeColor=#d6b656;fontSize=12;align=center;verticalAlign=middle;" parent="1" vertex="1">
                    <mxGeometry x="780" y="450" width="150" height="120" as="geometry"/>
                </mxCell>
                <mxCell id="ai-server" value="🧠 AI 서버&#10;(Runpod AI Engine)&#10;&#10;• 음성 전사 (WhisperX)&#10;• 텍스트 분석 (Qwen3-32B)&#10;• 2단계 파이프라인&#10;• GPU 가속" style="rounded=1;whiteSpace=wrap;html=1;fillColor=#ffcccc;strokeColor=#d79b00;fontSize=12;align=center;verticalAlign=middle;" parent="1" vertex="1">
                    <mxGeometry x="450" y="580" width="220" height="120" as="geometry"/>
                </mxCell>
                <mxCell id="database" value="🗃️ PostgreSQL&#10;데이터베이스&#10;&#10;• 멀티테넌트 데이터&#10;• 사용자 정보&#10;• 프로젝트 &amp; 업무&#10;• 연동 설정" style="shape=cylinder3;whiteSpace=wrap;html=1;boundedLbl=1;backgroundOutline=1;size=15;fillColor=#d5e8d4;strokeColor=#82b366;fontSize=12;align=center;verticalAlign=middle;" vertex="1" parent="1">
                    <mxGeometry x="280" y="580" width="120" height="120" as="geometry"/>
                </mxCell>
                <mxCell id="pm-to-system" value="" style="endArrow=classic;html=1;rounded=0;entryX=0;entryY=0.25;entryDx=0;entryDy=0;exitX=1;exitY=0.5;exitDx=0;exitDy=0;strokeWidth=2;strokeColor=#666666;" edge="1" parent="1" source="project-manager" target="ttalkkak-system">
                    <mxGeometry width="50" height="50" relative="1" as="geometry">
                        <mxPoint x="250" y="250" as="sourcePoint"/>
                        <mxPoint x="400" y="380" as="targetPoint"/>
                    </mxGeometry>
                </mxCell>
                <mxCell id="dev-to-system" value="" style="endArrow=classic;html=1;rounded=0;entryX=0;entryY=0.5;entryDx=0;entryDy=0;exitX=1;exitY=0.5;exitDx=0;exitDy=0;strokeWidth=2;strokeColor=#666666;" edge="1" parent="1" source="developer" target="ttalkkak-system">
                    <mxGeometry width="50" height="50" relative="1" as="geometry">
                        <mxPoint x="250" y="400" as="sourcePoint"/>
                        <mxPoint x="400" y="400" as="targetPoint"/>
                    </mxGeometry>
                </mxCell>
                <mxCell id="team-to-system" value="" style="endArrow=classic;html=1;rounded=0;entryX=0;entryY=0.75;entryDx=0;entryDy=0;exitX=1;exitY=0.5;exitDx=0;exitDy=0;strokeWidth=2;strokeColor=#666666;" edge="1" parent="1" source="team-member" target="ttalkkak-system">
                    <mxGeometry width="50" height="50" relative="1" as="geometry">
                        <mxPoint x="250" y="550" as="sourcePoint"/>
                        <mxPoint x="400" y="440" as="targetPoint"/>
                    </mxGeometry>
                </mxCell>
                <mxCell id="system-to-slack" value="실시간 알림&#10;명령어 처리" style="endArrow=classic;startArrow=classic;html=1;rounded=0;entryX=0;entryY=0.5;entryDx=0;entryDy=0;exitX=1;exitY=0.25;exitDx=0;exitDy=0;strokeWidth=2;strokeColor=#0066cc;" edge="1" parent="1" source="ttalkkak-system" target="slack-api">
                    <mxGeometry width="50" height="50" relative="1" as="geometry">
                        <mxPoint x="680" y="370" as="sourcePoint"/>
                        <mxPoint x="780" y="210" as="targetPoint"/>
                        <mxPoint as="offset"/>
                    </mxGeometry>
                </mxCell>
                <mxCell id="system-to-notion" value="페이지 생성&#10;문서화" style="endArrow=classic;startArrow=classic;html=1;rounded=0;entryX=0;entryY=0.5;entryDx=0;entryDy=0;exitX=1;exitY=0.5;exitDx=0;exitDy=0;strokeWidth=2;strokeColor=#0066cc;" edge="1" parent="1" source="ttalkkak-system" target="notion-api">
                    <mxGeometry width="50" height="50" relative="1" as="geometry">
                        <mxPoint x="680" y="410" as="sourcePoint"/>
                        <mxPoint x="780" y="360" as="targetPoint"/>
                        <mxPoint as="offset"/>
                    </mxGeometry>
                </mxCell>
                <mxCell id="system-to-jira" value="이슈 생성&#10;업무 관리" style="endArrow=classic;startArrow=classic;html=1;rounded=0;entryX=0;entryY=0.5;entryDx=0;entryDy=0;exitX=1;exitY=0.75;exitDx=0;exitDy=0;strokeWidth=2;strokeColor=#0066cc;" edge="1" parent="1" source="ttalkkak-system" target="jira-api">
                    <mxGeometry width="50" height="50" relative="1" as="geometry">
                        <mxPoint x="680" y="440" as="sourcePoint"/>
                        <mxPoint x="780" y="510" as="targetPoint"/>
                        <mxPoint as="offset"/>
                    </mxGeometry>
                </mxCell>
                <mxCell id="system-to-ai" value="음성 처리&#10;AI 분석" style="endArrow=classic;startArrow=classic;html=1;rounded=0;entryX=0.5;entryY=0;entryDx=0;entryDy=0;exitX=0.5;exitY=1;exitDx=0;exitDy=0;strokeWidth=2;strokeColor=#cc0000;" edge="1" parent="1" source="ttalkkak-system" target="ai-server">
                    <mxGeometry width="50" height="50" relative="1" as="geometry">
                        <mxPoint x="560" y="480" as="sourcePoint"/>
                        <mxPoint x="560" y="580" as="targetPoint"/>
                        <mxPoint as="offset"/>
                    </mxGeometry>
                </mxCell>
                <mxCell id="system-to-db" value="데이터 저장&#10;조회" style="endArrow=classic;startArrow=classic;html=1;rounded=0;entryX=1;entryY=0.5;entryDx=0;entryDy=0;entryPerimeter=0;exitX=0;exitY=1;exitDx=0;exitDy=0;strokeWidth=2;strokeColor=#009900;" edge="1" parent="1" source="ttalkkak-system" target="database">
                    <mxGeometry width="50" height="50" relative="1" as="geometry">
                        <mxPoint x="440" y="480" as="sourcePoint"/>
                        <mxPoint x="400" y="640" as="targetPoint"/>
                        <mxPoint as="offset"/>
                    </mxGeometry>
                </mxCell>
                <mxCell id="users-to-slack" value="" style="endArrow=none;dashed=1;html=1;rounded=0;strokeColor=#999999;strokeWidth=1;" edge="1" parent="1">
                    <mxGeometry width="50" height="50" relative="1" as="geometry">
                        <mxPoint x="230" y="300" as="sourcePoint"/>
                        <mxPoint x="780" y="210" as="targetPoint"/>
                    </mxGeometry>
                </mxCell>
                <mxCell id="users-to-notion" value="" style="endArrow=none;dashed=1;html=1;rounded=0;strokeColor=#999999;strokeWidth=1;" edge="1" parent="1">
                    <mxGeometry width="50" height="50" relative="1" as="geometry">
                        <mxPoint x="230" y="400" as="sourcePoint"/>
                        <mxPoint x="780" y="360" as="targetPoint"/>
                    </mxGeometry>
                </mxCell>
                <mxCell id="users-to-jira" value="" style="endArrow=none;dashed=1;html=1;rounded=0;strokeColor=#999999;strokeWidth=1;" edge="1" parent="1">
                    <mxGeometry width="50" height="50" relative="1" as="geometry">
                        <mxPoint x="230" y="500" as="sourcePoint"/>
                        <mxPoint x="780" y="510" as="targetPoint"/>
                    </mxGeometry>
                </mxCell>
                <mxCell id="legend-title" value="범례" style="text;html=1;strokeColor=none;fillColor=none;align=left;verticalAlign=middle;whiteSpace=wrap;rounded=0;fontSize=14;fontStyle=1" vertex="1" parent="1">
                    <mxGeometry x="30" y="720" width="60" height="20" as="geometry"/>
                </mxCell>
                <mxCell id="legend-user" value="사용자" style="rounded=1;whiteSpace=wrap;html=1;fillColor=#e1d5e7;strokeColor=#9673a6;fontSize=10;" vertex="1" parent="1">
                    <mxGeometry x="30" y="750" width="60" height="30" as="geometry"/>
                </mxCell>
                <mxCell id="legend-system" value="핵심 시스템" style="rounded=1;whiteSpace=wrap;html=1;fillColor=#dae8fc;strokeColor=#6c8ebf;fontSize=10;" vertex="1" parent="1">
                    <mxGeometry x="110" y="750" width="80" height="30" as="geometry"/>
                </mxCell>
                <mxCell id="legend-external" value="외부 API" style="rounded=1;whiteSpace=wrap;html=1;fillColor=#fff2cc;strokeColor=#d6b656;fontSize=10;" vertex="1" parent="1">
                    <mxGeometry x="210" y="750" width="70" height="30" as="geometry"/>
                </mxCell>
                <mxCell id="legend-ai" value="AI 서버" style="rounded=1;whiteSpace=wrap;html=1;fillColor=#ffcccc;strokeColor=#d79b00;fontSize=10;" vertex="1" parent="1">
                    <mxGeometry x="300" y="750" width="60" height="30" as="geometry"/>
                </mxCell>
                <mxCell id="legend-data" value="데이터베이스" style="shape=cylinder3;whiteSpace=wrap;html=1;boundedLbl=1;backgroundOutline=1;size=5;fillColor=#d5e8d4;strokeColor=#82b366;fontSize=10;" vertex="1" parent="1">
                    <mxGeometry x="380" y="750" width="80" height="30" as="geometry"/>
                </mxCell>
            </root>
        </mxGraphModel>
    </diagram>
</mxfile>